<?xml version="1.0" encoding="utf-8"?>
<!-- Generator: Adobe Illustrator 23.0.3, SVG Export Plug-In . SVG Version: 6.00 Build 0)  -->
<svg version="1.1" id="Layer_1" xmlns="http://www.w3.org/2000/svg" xmlns:xlink="http://www.w3.org/1999/xlink" x="0px" y="0px"
	 viewBox="0 0 28.3 28.3" style="enable-background:new 0 0 28.3 28.3;" xml:space="preserve">
<g>
	<path style="fill:#F05E23;" d="M15.8,14.6c-1.5,0-2.6,1.2-2.6,2.6c0,1.5,1.2,2.6,2.6,2.6c1.5,0,2.6-1.2,2.6-2.6C18.5,15.8,17.3,14.6,15.8,14.6z
		 M15.8,18.9c-0.9,0-1.7-0.8-1.7-1.7c0-0.9,0.8-1.7,1.7-1.7c1,0,1.7,0.8,1.7,1.7C17.5,18.2,16.8,18.9,15.8,18.9z"/>
	<path style="fill:#F05E23;" d="M14.6,11.7c0-1.2-0.9-2.1-2.1-2.1c-1.1,0-2.1,1-2.1,2.1c0,1.2,0.9,2.1,2.1,2.1C13.6,13.8,14.6,12.8,14.6,11.7z M12.5,12.9
		c-0.7,0-1.2-0.5-1.2-1.2c0-0.6,0.5-1.2,1.2-1.2c0.7,0,1.2,0.5,1.2,1.2C13.6,12.3,13.1,12.8,12.5,12.9z"/>
	<path style="fill:#F05E23;" d="M27.4,14.1c-0.1-0.8-0.7-1.4-1.5-1.4c-0.7,0-1.3,0.4-1.6,1c0,0.1,0,0.1-0.1,0.1c-0.4,0-0.9,0-1.3,0c-0.1,0-0.1,0-0.1-0.1
		c-0.1-1.2-0.4-2.2-0.9-3.3c0-0.1,0-0.1,0.1-0.1c0.4-0.2,0.7-0.4,1.1-0.6c0.1-0.1,0.1-0.1,0.2,0c0.5,0.4,1.3,0.5,1.9,0.1
		c0.6-0.4,0.8-1.1,0.7-1.7c-0.2-0.8-1-1.4-1.9-1.2c-0.8,0.2-1.4,1-1.3,1.8c0,0.1,0,0.1-0.1,0.2c-0.4,0.2-0.8,0.4-1.1,0.6
		c-0.1,0-0.1,0-0.2,0c-0.6-1-1.4-1.7-2.4-2.4c-0.1-0.1-0.1-0.1,0-0.2c0.2-0.4,0.4-0.7,0.6-1.1c0-0.1,0.1-0.1,0.2-0.1
		c1.1,0.1,2-0.7,1.8-1.8c-0.1-0.7-0.6-1.2-1.3-1.4c-0.7-0.1-1.3,0.2-1.7,0.7c-0.4,0.6-0.3,1.3,0.1,1.9c0.1,0.1,0.1,0.1,0,0.2
		c-0.2,0.4-0.4,0.7-0.6,1.1c0,0.1-0.1,0.1-0.2,0c-1-0.5-2.1-0.8-3.3-0.9c-0.1,0-0.1,0-0.1-0.1c0-0.4,0-0.8,0-1.2
		c0-0.1,0-0.2,0.2-0.3c0.8-0.3,1.2-1.2,0.9-2c-0.3-0.8-1.2-1.2-2-1c-0.6,0.2-1.1,0.8-1.1,1.5c0,0.7,0.4,1.3,1,1.6
		c0.1,0,0.1,0,0.1,0.1c0,0.4,0,0.9,0,1.3c0,0.1,0,0.1-0.1,0.1c-1.2,0.1-2.2,0.4-3.3,0.9c-0.1,0-0.1,0-0.1-0.1
		C9.9,6.1,9.7,5.8,9.5,5.4c-0.1-0.1-0.1-0.1,0-0.2C9.9,4.6,10,3.9,9.6,3.3C9.2,2.7,8.5,2.4,7.9,2.6C7,2.8,6.5,3.6,6.7,4.5
		c0.2,0.8,1,1.4,1.8,1.3c0.1,0,0.1,0,0.2,0.1c0.2,0.4,0.4,0.8,0.6,1.1c0,0.1,0,0.1,0,0.2c-1,0.6-1.7,1.4-2.4,2.4
		c-0.1,0.1-0.1,0.1-0.2,0C6.4,9.3,6,9.1,5.6,8.9c-0.1,0-0.1-0.1-0.1-0.2C5.6,8,5.3,7.4,4.8,7.1C4.2,6.7,3.5,6.8,3,7.2
		C2.5,7.6,2.2,8.2,2.4,8.9C2.7,10,4.1,10.4,5,9.7c0.1-0.1,0.1-0.1,0.2,0c0.4,0.2,0.7,0.4,1.1,0.6c0.1,0,0.1,0.1,0.1,0.2
		c-0.5,1-0.8,2.1-0.9,3.2c0,0.1,0,0.1-0.1,0.1c-0.4,0-0.8,0-1.3,0c-0.1,0-0.2,0-0.2-0.1c-0.3-0.8-1.2-1.2-2-0.9
		c-0.8,0.3-1.3,1.1-1.1,1.9c0.2,0.7,0.8,1.2,1.4,1.2c0.7,0,1.4-0.4,1.6-1c0-0.1,0.1-0.1,0.2-0.1c0.2,0,0.4,0,0.6,0
		c0.2,0,0.4,0,0.7,0c0.1,0,0.1,0,0.1,0.1c0.1,1.1,0.4,2.2,0.9,3.3c0,0.1,0,0.1,0,0.2c-0.4,0.2-0.7,0.4-1.1,0.6C5.1,19,5,19,5,18.9
		c-0.6-0.4-1.3-0.5-1.9-0.1c-0.6,0.4-0.8,1.2-0.6,1.8c0.3,0.8,1.1,1.2,1.9,1.1c0.8-0.2,1.3-1,1.2-1.8c0-0.1,0-0.1,0.1-0.2
		c0.4-0.2,0.8-0.4,1.1-0.6c0.1,0,0.1,0,0.2,0c0.6,1,1.4,1.8,2.4,2.4c0.1,0.1,0.1,0.1,0,0.2c-0.2,0.4-0.4,0.7-0.6,1.1
		c0,0.1-0.1,0.1-0.2,0.1c-1.2-0.2-2.1,0.9-1.8,2c0.2,0.6,0.7,1.1,1.4,1.2c0.6,0.1,1.3-0.2,1.6-0.8c0.3-0.6,0.3-1.3-0.1-1.8
		c-0.1-0.1-0.1-0.1,0-0.2c0.2-0.4,0.4-0.7,0.6-1.1c0.1-0.1,0.1-0.1,0.2,0c1,0.5,2.1,0.8,3.2,0.9c0.1,0,0.1,0,0.1,0.1
		c0,0.4,0,0.8,0,1.2c0,0.1,0,0.2-0.2,0.3c-0.8,0.3-1.2,1.2-0.9,2c0.3,0.8,1.2,1.2,2,0.9c0.6-0.2,1.1-0.8,1.1-1.5
		c0-0.7-0.4-1.3-1-1.5c-0.1,0-0.1,0-0.1-0.1c0-0.4,0-0.9,0-1.3c0-0.1,0-0.1,0.1-0.1c1.2-0.1,2.2-0.4,3.3-0.9c0.1,0,0.1,0,0.1,0
		c0.2,0.4,0.4,0.8,0.7,1.1c0,0.1,0,0.1,0,0.2c-0.3,0.3-0.4,0.7-0.4,1.2c0,0.8,0.8,1.5,1.6,1.5c0.8,0,1.5-0.7,1.6-1.5
		c0-1.1-0.8-1.8-1.9-1.7c-0.1,0-0.1,0-0.2-0.1c-0.2-0.4-0.4-0.8-0.7-1.2c0-0.1,0-0.1,0-0.1c1-0.6,1.8-1.4,2.4-2.4
		c0.1-0.1,0.1-0.1,0.2,0c0.4,0.2,0.7,0.4,1.1,0.6c0.1,0,0.1,0.1,0.1,0.2c-0.1,0.9,0.5,1.8,1.4,1.9c0.7,0.1,1.4-0.3,1.7-1
		c0.3-0.7,0-1.4-0.5-1.9c-0.6-0.4-1.4-0.4-2,0c-0.1,0.1-0.1,0.1-0.2,0c-0.4-0.2-0.7-0.4-1.1-0.6c-0.1-0.1-0.1-0.1-0.1-0.2
		c0.5-1,0.8-2.1,0.9-3.2c0-0.1,0-0.1,0.1-0.1c0.4,0,0.8,0,1.3,0c0.1,0,0.1,0,0.2,0.1c0.3,0.8,1.1,1.2,1.8,1
		C26.9,15.7,27.5,14.9,27.4,14.1z M24.2,7.8c0.4,0,0.7,0.3,0.7,0.7c0,0.4-0.3,0.7-0.7,0.7c-0.4,0-0.7-0.3-0.7-0.7
		C23.5,8.1,23.9,7.8,24.2,7.8z M20,3.5c0.4,0,0.7,0.3,0.7,0.7c0,0.4-0.3,0.7-0.7,0.7c-0.4,0-0.7-0.3-0.7-0.7
		C19.3,3.8,19.6,3.5,20,3.5z M8.2,4.9c-0.4,0-0.7-0.3-0.7-0.7c0-0.4,0.3-0.7,0.7-0.7c0.4,0,0.7,0.3,0.7,0.7C8.9,4.6,8.6,4.9,8.2,4.9
		z M4,9.1c-0.4,0-0.7-0.3-0.7-0.7c0-0.4,0.3-0.7,0.7-0.7c0.4,0,0.7,0.3,0.7,0.7C4.7,8.8,4.3,9.1,4,9.1z M2.4,15
		c-0.4,0-0.7-0.3-0.7-0.7c0-0.4,0.3-0.7,0.7-0.7c0.4,0,0.7,0.3,0.7,0.7C3.1,14.7,2.8,15,2.4,15z M4,20.8c-0.4,0-0.7-0.3-0.7-0.7
		c0-0.4,0.3-0.7,0.7-0.7c0.4,0,0.7,0.3,0.7,0.7C4.7,20.5,4.3,20.8,4,20.8z M8.3,25.1c-0.4,0-0.7-0.3-0.7-0.7c0-0.4,0.3-0.7,0.7-0.7
		c0.4,0,0.7,0.3,0.7,0.7C8.9,24.8,8.6,25.1,8.3,25.1z M20,23.7c0.4,0,0.7,0.3,0.7,0.7c0,0.4-0.3,0.7-0.7,0.7c-0.4,0-0.7-0.3-0.7-0.7
		C19.3,24.1,19.6,23.7,20,23.7z M13.4,2.6c0-0.4,0.3-0.7,0.7-0.7c0.4,0,0.7,0.3,0.7,0.7c0,0.4-0.3,0.7-0.7,0.7
		C13.7,3.3,13.4,3,13.4,2.6z M14.8,26c0,0.4-0.3,0.7-0.7,0.7c-0.4,0-0.7-0.3-0.7-0.7c0-0.4,0.3-0.7,0.7-0.7
		C14.5,25.3,14.8,25.6,14.8,26z M14.1,22c-4.2,0-7.7-3.5-7.7-7.7c0-4.3,3.4-7.8,7.7-7.8c4.4,0,7.8,3.4,7.8,7.8
		C21.8,18.6,18.4,22,14.1,22z M24.2,19.5c0.4,0,0.7,0.3,0.7,0.7c0,0.4-0.3,0.7-0.7,0.7c-0.4,0-0.7-0.3-0.7-0.7
		C23.5,19.8,23.9,19.5,24.2,19.5z M25.8,15c-0.4,0-0.7-0.3-0.7-0.7c0-0.4,0.3-0.7,0.7-0.7c0.4,0,0.7,0.3,0.7,0.7
		C26.5,14.7,26.2,15,25.8,15z"/>
</g>
</svg>
